<?xml version="1.0" encoding="utf-8"?>
<!-- Generator: Adobe Illustrator 19.0.0, SVG Export Plug-In . SVG Version: 6.00 Build 0)  -->
<svg version="1.1" xmlns="http://www.w3.org/2000/svg" xmlns:xlink="http://www.w3.org/1999/xlink" x="0px" y="0px"
	 viewBox="0 0 152 172.3" style="enable-background:new 0 0 152 172.3;" xml:space="preserve">
<style type="text/css">
	.st0{fill:#961C1F;}
	.st1{fill:#961C1F;stroke:#961C1F;stroke-miterlimit:10;}
	.st2{display:none;}
</style>
<g id="Layer_3">
	<path id="XMLID_4_" d="M140,68.1c10.9,35.3-10.6,71.8-41.5,83.7c-20.4,7.9-45,5.1-63.8-8.8c-25.4-18.7-27.1-48-27.3-52
		c-0.2-5.5-0.2-22.2,10.5-39c1.4-2.2,19.3-29.2,52.3-31.5C99.9,18.5,130.5,37.4,140,68.1z"/>
</g>
<g id="Layer_1">
	<path id="XMLID_25_" class="st0" d="M41.7,72.8c0.8-3.5,2.2-8.6,4.5-14.7c2-5.4,3.9-9.3,5.2-11.8C55.3,38.3,59.6,29.2,65,18
		c-5.7,0.7-15.8,2.8-26.5,9.3C28.4,33.5,22.3,41,19,45.7c0.7,3.4,2.7,10.3,8.5,17C32.7,68.6,38.5,71.5,41.7,72.8z"/>
	<path id="XMLID_24_" class="st0" d="M49.5,75.3c1.6-8,4.3-18,9-28.8c5.1-11.8,11.2-21.2,16.3-28.2c0.5,0,1.3,0,2.2,0
		c13,0,22.9,4,26.5,5.5c11.9,5.2,19.5,12.6,23.3,17c-5.5,0.9-13.5,2.9-22,7.7C92.9,55.2,89.9,62,79.8,68
		C73.7,71.6,64.1,75.5,49.5,75.3z"/>
	<path id="XMLID_23_" class="st0" d="M14,54.3c-2.2,3.7-4.9,9-6.7,15.8c-1.6,5.9-2,11.2-2,15.2c3.6,3.1,8.4,6.6,14.5,9.8
		c7.7,4,14.8,6.1,20.2,7.2c-0.7-2.7-1.3-6.1-1.3-10.2c-0.1-4.4,0.5-8.2,1.2-11c-3.4-1.1-10.3-3.9-16.5-10.5
		C17.4,64.4,15,57.8,14,54.3z"/>
	<path id="XMLID_22_" class="st1" d="M49.5,83.8c-0.3,3-0.4,6.3-0.3,10c0.1,3.8,0.5,7.3,1,10.3c8.8,1.6,19.3,2.8,31,2.5
		c27.7-0.6,49.7-8.8,63.5-15.3c0.3-5,0.1-11.9-1.8-19.8c-2.6-10.5-7.2-18.2-10.5-22.8c-4.3,0.2-10.1,1-16.5,3.3
		c-11.4,4.2-18.7,11.4-22.3,15.5c-4,3.4-10,7.8-18.2,11.2C64.8,83,55.4,83.8,49.5,83.8z"/>
	<path id="XMLID_8_" class="st0" d="M5.1,94.8c0.1,3.9,0.8,9.1,2.7,15c2.6,7.9,6.5,13.7,9.3,17.3c3.6-1.7,8.4-3.5,14.2-4.7
		c4.3-0.8,8.1-1.1,11.3-1.2c-0.9-3.6-1.8-7.2-2.7-10.8c-4.9-1.1-10.8-2.9-17.2-5.7C15.5,101.6,9.6,98,5.1,94.8z"/>
	<path id="XMLID_6_" class="st1" d="M52.2,113c0.7,3.2,1.4,6.3,2.2,9.5c8.9,1.6,19.2,4,30.3,7.8c12.9,4.4,23.8,9.6,32.7,14.5
		c4.5-2.9,11.3-8.1,17.2-16.7c7.6-11.1,9.7-22,10.3-27.7c-10.9,4.7-26.3,10.1-45.5,12.7C80.2,115.7,63.9,114.7,52.2,113z"/>
	<path id="XMLID_5_" class="st1" d="M21.3,135.3c2.6-1.4,6.2-3.1,10.8-4.2c5.5-1.3,10.3-1.2,13.5-0.8c1.5,3.9,3.5,8.3,6.2,13
		c3.4,5.9,7.1,10.7,10.3,14.3c-5-0.7-12.1-2.2-19.8-6C31.9,146.6,25.1,139.7,21.3,135.3z"/>
	<path id="XMLID_3_" class="st1" d="M55.8,131.8c1.7,4.3,4.2,9.8,8.2,15.5c3.7,5.4,7.6,9.5,10.8,12.5c4.6,0.2,11.3,0,19-2.2
		c6.7-1.9,11.9-4.6,15.5-6.8c-6.8-4-15.5-8.5-26-12.2C73,135,63.6,133,55.8,131.8z"/>
	<path id="XMLID_64_" class="st0" d="M176.5,210.8"/>
	<path id="XMLID_12_" class="st0" d="M75.5,13.3"/>
	<path id="XMLID_11_" class="st0" d="M86,14.8"/>
	<path id="XMLID_1_" class="st1" d="M196,184.7"/>
</g>
<g id="Layer_2" class="st2">
</g>
</svg>
